# xmcd CD database file
#
# Track frame offsets:
#	150
#	5763
#	44905
#	71148
#	102402
#	152048
#	213358
#	243533
#	294393
#	338675
#
# Disc length: 4700 seconds
#
# Revision: 3
# Processed by: cddbd v1.5.1PL2 Copyright (c) Steve Scherf et al.
# Submitted via: CDex 1.60beta1
#
DISCID=98125a0a
DTITLE=D.O. - ドラマCD 家族計画 〜邂逅〜 第二巻
DYEAR=2005
DGENRE=Game
TTITLE0=プロローグ
TTITLE1=チャンネル争いといくつかの疑惑
TTITLE2=ウィークデーの朝と賑やかな尾行
TTITLE3=子供の情景と憧れのお兄さん
TTITLE4=破壊工作の本格化と謎の闖入者
TTITLE5=赤提灯の擬似親子と破壊工作者の正体
TTITLE6=少年の計画と昭和最後の家族会議
TTITLE7=お粗末な事件の顛末と思い残すことについての考察
TTITLE8=エピローグ〜それぞれの過去との決別〜
TTITLE9=DataTrack
EXTD=YEAR: 2005
EXTT0=
EXTT1=
EXTT2=
EXTT3=
EXTT4=
EXTT5=
EXTT6=
EXTT7=
EXTT8=
EXTT9=
PLAYORDER=
